HIERARCHY
ROOT Hips
{
	OFFSET 0.000000 83.214638 0.000000
	CHANNELS 6 Xposition Yposition Zposition Xrotation Yrotation Zrotation
	JOINT Pelvis
	{
		OFFSET 0.000000 0.000000 0.000000
		CHANNELS 3 Xrotation Yrotation Zrotation
		JOINT LeftUpLeg
		{
			OFFSET 8.479700 -4.795502 -0.379100
			CHANNELS 3 Xrotation Yrotation Zrotation
			JOINT LeftLeg
			{
				OFFSET 0.024144 -32.555107 0.112900
				CHANNELS 3 Xrotation Yrotation Zrotation
				JOINT LeftFoot
				{
					OFFSET -0.024144 -32.638630 -3.012600
					CHANNELS 3 Xrotation Yrotation Zrotation
					JOINT LeftToeBase
					{
						OFFSET 0.970200 -13.225400 11.864200
						CHANNELS 3 Xrotation Yrotation Zrotation
						End Site
						{
							OFFSET 0.000000 12.319262 0.000000
						}
					}
					JOINT LFootTongue
					{
						OFFSET 1.142400 -1.059800 6.665200
						CHANNELS 3 Xrotation Yrotation Zrotation
						End Site
						{
							OFFSET 0.000000 12.319262 0.000000
						}
					}
				}
				JOINT LeftPantLeg
				{
					OFFSET 0.918482 -16.533964 -2.284700
					CHANNELS 3 Xrotation Yrotation Zrotation
					End Site
					{
						OFFSET 0.350399 24.744368 0.000000
					}
				}
			}
		}
		JOINT RightUpLeg
		{
			OFFSET -8.479700 -4.795502 -0.379100
			CHANNELS 3 Xrotation Yrotation Zrotation
			JOINT RightLeg
			{
				OFFSET -0.023144 -32.555092 0.112900
				CHANNELS 3 Xrotation Yrotation Zrotation
				JOINT RightFoot
				{
					OFFSET 0.023144 -32.638641 -3.012700
					CHANNELS 3 Xrotation Yrotation Zrotation
					JOINT RightToeBase
					{
						OFFSET -0.970200 -13.225400 11.864200
						CHANNELS 3 Xrotation Yrotation Zrotation
						End Site
						{
							OFFSET 0.000000 12.319244 0.000000
						}
					}
					JOINT RFootTongue
					{
						OFFSET -1.142200 -1.059800 6.665200
						CHANNELS 3 Xrotation Yrotation Zrotation
						End Site
						{
							OFFSET 0.000000 12.319243 0.000000
						}
					}
				}
				JOINT RightPantLeg
				{
					OFFSET -0.919482 -16.533978 -2.284800
					CHANNELS 3 Xrotation Yrotation Zrotation
					End Site
					{
						OFFSET -0.350400 24.744419 0.000000
					}
				}
			}
		}
	}
	JOINT Spine
	{
		OFFSET 0.000000 7.722000 1.166200
		CHANNELS 3 Xrotation Yrotation Zrotation
		JOINT Spine1
		{
			OFFSET 0.000000 12.024101 0.248800
			CHANNELS 3 Xrotation Yrotation Zrotation
			JOINT Spine2
			{
				OFFSET 0.000000 11.502998 -0.491200
				CHANNELS 3 Xrotation Yrotation Zrotation
				JOINT Neck
				{
					OFFSET 0.000000 18.430702 -3.123100
					CHANNELS 3 Xrotation Yrotation Zrotation
					JOINT Head
					{
						OFFSET 0.000000 9.051102 1.034000
						CHANNELS 3 Xrotation Yrotation Zrotation
						JOINT HairB
						{
							OFFSET 0.208400 24.786102 24.822300
							CHANNELS 3 Xrotation Yrotation Zrotation
							End Site
							{
								OFFSET 0.000000 32.263779 0.000000
							}
						}
						JOINT HairA
						{
							OFFSET -7.081100 24.428299 23.196600
							CHANNELS 3 Xrotation Yrotation Zrotation
							End Site
							{
								OFFSET 0.000000 32.263779 0.000000
							}
						}
						JOINT Hat
						{
							OFFSET 16.728800 15.048294 -15.439601
							CHANNELS 3 Xrotation Yrotation Zrotation
							End Site
							{
								OFFSET 0.000000 32.263779 0.000000
							}
						}
					}
				}
				JOINT LeftShoulder
				{
					OFFSET 6.197800 13.665199 -4.064700
					CHANNELS 3 Xrotation Yrotation Zrotation
					JOINT LeftArm
					{
						OFFSET 7.778100 -0.187103 -1.709300
						CHANNELS 3 Xrotation Yrotation Zrotation
						JOINT LeftForeArm
						{
							OFFSET 22.049376 0.000000 0.000000
							CHANNELS 3 Xrotation Yrotation Zrotation
							JOINT LeftHand
							{
								OFFSET 23.009392 0.000000 0.000000
								CHANNELS 3 Xrotation Yrotation Zrotation
								JOINT LeftHandThumb1
								{
									OFFSET 3.507191 -2.063065 3.133727
									CHANNELS 3 Xrotation Yrotation Zrotation
									JOINT LeftHandThumb2
									{
										OFFSET 3.101337 -1.790558 1.790558
										CHANNELS 3 Xrotation Yrotation Zrotation
										JOINT LeftHandThumb3
										{
											OFFSET 3.058640 -1.765907 1.765906
											CHANNELS 3 Xrotation Yrotation Zrotation
											End Site
											{
												OFFSET -0.415260 3.926476 -0.049563
											}
										}
									}
								}
								JOINT LeftHandIndex1
								{
									OFFSET 11.334419 -0.901459 3.706815
									CHANNELS 3 Xrotation Yrotation Zrotation
									JOINT LeftHandIndex2
									{
										OFFSET 3.283112 0.000000 0.000000
										CHANNELS 3 Xrotation Yrotation Zrotation
										JOINT LeftHandIndex3
										{
											OFFSET 3.323853 0.000000 0.000000
											CHANNELS 3 Xrotation Yrotation Zrotation
											End Site
											{
												OFFSET -1.135597 3.097809 0.402452
											}
										}
									}
								}
								JOINT LeftHandMiddle1
								{
									OFFSET 11.335861 0.000000 0.000000
									CHANNELS 3 Xrotation Yrotation Zrotation
									JOINT LeftHandMiddle2
									{
										OFFSET 3.410492 0.000000 0.000000
										CHANNELS 3 Xrotation Yrotation Zrotation
										JOINT LeftHandMiddle3
										{
											OFFSET 3.312172 0.000000 0.000000
											CHANNELS 3 Xrotation Yrotation Zrotation
											End Site
											{
												OFFSET -1.150200 3.080154 0.400270
											}
										}
									}
								}
								JOINT LeftHandRing1
								{
									OFFSET 11.514786 -0.013176 -3.003090
									CHANNELS 3 Xrotation Yrotation Zrotation
									JOINT LeftHandRing2
									{
										OFFSET 3.053307 0.000000 0.000000
										CHANNELS 3 Xrotation Yrotation Zrotation
										JOINT LeftHandRing3
										{
											OFFSET 3.295807 0.000000 0.000000
											CHANNELS 3 Xrotation Yrotation Zrotation
											End Site
											{
												OFFSET -1.281006 3.013344 0.375733
											}
										}
									}
								}
								JOINT LeftHandPinky1
								{
									OFFSET 10.518692 -0.960396 -5.730441
									CHANNELS 3 Xrotation Yrotation Zrotation
									JOINT LeftHandPinky2
									{
										OFFSET 2.861649 0.000000 0.000000
										CHANNELS 3 Xrotation Yrotation Zrotation
										JOINT LeftHandPinky3
										{
											OFFSET 2.863380 0.000000 0.000000
											CHANNELS 3 Xrotation Yrotation Zrotation
											End Site
											{
												OFFSET -0.843597 2.711159 0.369971
											}
										}
									}
								}
							}
							JOINT LSleeve
							{
								OFFSET 6.676277 -0.344902 -1.011730
								CHANNELS 3 Xrotation Yrotation Zrotation
								End Site
								{
									OFFSET 0.000000 14.885353 0.000000
								}
							}
						}
					}
				}
				JOINT RightShoulder
				{
					OFFSET -6.197800 13.665199 -4.064700
					CHANNELS 3 Xrotation Yrotation Zrotation
					JOINT RightArm
					{
						OFFSET -7.778100 -0.187103 -1.709300
						CHANNELS 3 Xrotation Yrotation Zrotation
						JOINT RightForeArm
						{
							OFFSET -22.049376 0.000000 0.000000
							CHANNELS 3 Xrotation Yrotation Zrotation
							JOINT RightHand
							{
								OFFSET -23.009392 0.000000 0.000000
								CHANNELS 3 Xrotation Yrotation Zrotation
								JOINT RightHandThumb1
								{
									OFFSET -3.507191 -2.063065 3.133727
									CHANNELS 3 Xrotation Yrotation Zrotation
									JOINT RightHandThumb2
									{
										OFFSET -3.101337 -1.790558 1.790558
										CHANNELS 3 Xrotation Yrotation Zrotation
										JOINT RightHandThumb3
										{
											OFFSET -3.058640 -1.765907 1.765906
											CHANNELS 3 Xrotation Yrotation Zrotation
											End Site
											{
												OFFSET 0.415260 3.926476 -0.049563
											}
										}
									}
								}
								JOINT RightHandIndex1
								{
									OFFSET -11.334419 -0.901459 3.706815
									CHANNELS 3 Xrotation Yrotation Zrotation
									JOINT RightHandIndex2
									{
										OFFSET -3.283112 0.000000 0.000000
										CHANNELS 3 Xrotation Yrotation Zrotation
										JOINT RightHandIndex3
										{
											OFFSET -3.323853 0.000000 0.000000
											CHANNELS 3 Xrotation Yrotation Zrotation
											End Site
											{
												OFFSET 1.135597 3.097809 0.402452
											}
										}
									}
								}
								JOINT RightHandMiddle1
								{
									OFFSET -11.335861 0.000000 0.000000
									CHANNELS 3 Xrotation Yrotation Zrotation
									JOINT RightHandMiddle2
									{
										OFFSET -3.410492 0.000000 0.000000
										CHANNELS 3 Xrotation Yrotation Zrotation
										JOINT RightHandMiddle3
										{
											OFFSET -3.312172 0.000000 0.000000
											CHANNELS 3 Xrotation Yrotation Zrotation
											End Site
											{
												OFFSET 1.150200 3.080154 0.400270
											}
										}
									}
								}
								JOINT RightHandRing1
								{
									OFFSET -11.514786 -0.013176 -3.003090
									CHANNELS 3 Xrotation Yrotation Zrotation
									JOINT RightHandRing2
									{
										OFFSET -3.053307 0.000000 0.000000
										CHANNELS 3 Xrotation Yrotation Zrotation
										JOINT RightHandRing3
										{
											OFFSET -3.295807 0.000000 0.000000
											CHANNELS 3 Xrotation Yrotation Zrotation
											End Site
											{
												OFFSET 1.281006 3.013344 0.375733
											}
										}
									}
								}
								JOINT RightHandPinky1
								{
									OFFSET -10.518692 -0.960396 -5.730441
									CHANNELS 3 Xrotation Yrotation Zrotation
									JOINT RightHandPinky2
									{
										OFFSET -2.861649 0.000000 0.000000
										CHANNELS 3 Xrotation Yrotation Zrotation
										JOINT RightHandPinky3
										{
											OFFSET -2.863380 0.000000 0.000000
											CHANNELS 3 Xrotation Yrotation Zrotation
											End Site
											{
												OFFSET 0.843597 2.711159 0.369971
											}
										}
									}
								}
							}
							JOINT RSleeve
							{
								OFFSET -6.676277 -0.344902 -1.011730
								CHANNELS 3 Xrotation Yrotation Zrotation
								End Site
								{
									OFFSET 0.000000 14.885353 0.000000
								}
							}
						}
					}
				}
				JOINT Backpack
				{
					OFFSET 0.000000 -2.471497 36.677502
					CHANNELS 3 Xrotation Yrotation Zrotation
					End Site
					{
						OFFSET 0.000000 20.427315 0.000000
					}
				}
				JOINT Hood
				{
					OFFSET 0.000000 18.754097 -10.431000
					CHANNELS 3 Xrotation Yrotation Zrotation
					JOINT Hood1
					{
						OFFSET 0.000000 -5.011002 -7.685901
						CHANNELS 3 Xrotation Yrotation Zrotation
						End Site
						{
							OFFSET 0.000000 9.175140 0.000000
						}
					}
				}
				JOINT LHoodieString
				{
					OFFSET 5.250500 16.397697 3.089900
					CHANNELS 3 Xrotation Yrotation Zrotation
					JOINT LHoodieString1
					{
						OFFSET 0.257700 -6.364304 3.694600
						CHANNELS 3 Xrotation Yrotation Zrotation
						JOINT LHoodieString2
						{
							OFFSET 0.000000 -9.643799 2.679100
							CHANNELS 3 Xrotation Yrotation Zrotation
							End Site
							{
								OFFSET 0.000000 10.009018 0.000000
							}
						}
					}
				}
				JOINT RHoodieString
				{
					OFFSET -5.250500 16.397697 3.089900
					CHANNELS 3 Xrotation Yrotation Zrotation
					JOINT RHoodieString1
					{
						OFFSET -0.257700 -6.364304 3.694600
						CHANNELS 3 Xrotation Yrotation Zrotation
						JOINT RHoodieString2
						{
							OFFSET 0.000000 -9.643799 2.679100
							CHANNELS 3 Xrotation Yrotation Zrotation
							End Site
							{
								OFFSET 0.000000 10.009018 0.000000
							}
						}
					}
				}
			}
			JOINT LBackpack_Strap
			{
				OFFSET 15.223200 -7.719803 -6.610900
				CHANNELS 3 Xrotation Yrotation Zrotation
				End Site
				{
					OFFSET 0.000000 16.040596 0.000000
				}
			}
			JOINT RBackpack_Strap
			{
				OFFSET -15.223000 -7.719803 -6.610900
				CHANNELS 3 Xrotation Yrotation Zrotation
				End Site
				{
					OFFSET 0.000000 16.040596 0.000000
				}
			}
		}
	}
	JOINT BoyFacialAnim_Joint
	{
		OFFSET 1.000000 -82.208099 -1.550900
		CHANNELS 3 Xrotation Yrotation Zrotation
		End Site
		{
			OFFSET 0.000000 30.012791 0.000000
		}
	}
}
MOTION
Frames: 5
Frame Time: 0.016667
0.104461 76.947876 0.608335 5.323496 -6.839445 -1.284905 -0.000000 -0.000000 -0.000000 -42.672478 6.368206 20.560835 60.971712 8.608206 -1.591286 13.447860 6.580144 -11.651086 0.000002 0.000002 -0.000000 0.000002 0.000002 -0.000001 -0.000000 -0.000002 0.000001 -31.923997 -6.195661 4.819690 43.997852 -1.400513 -1.003290 -19.441867 -5.594996 -3.990623 -0.000000 -0.000003 -0.000000 -0.000000 -0.000003 -0.000000 -0.000003 0.000000 0.000000 9.156533 3.432575 5.193443 6.474934 1.246102 1.050139 6.471417 1.202600 1.091237 2.140437 -0.614931 -1.384965 -3.656091 -2.727634 0.126230 -0.000000 -0.000000 0.000000 -0.000000 -0.000000 0.000000 -0.000000 -0.000000 0.000000 1.724438 -9.915037 -14.934998 -25.063145 2.043298 -69.542179 -0.000008 -31.031284 -0.000010 13.812952 3.247845 3.605222 -6.000707 -6.126821 4.616755 7.611103 24.884944 2.404781 0.000001 -0.000002 0.000000 0.627457 4.865873 -25.301790 0.596884 2.578223 -26.066037 -0.000007 -0.000002 -0.000004 0.227906 3.736618 -13.565790 0.647516 2.679129 -27.169724 0.000002 0.000002 0.000002 0.497543 4.571297 -22.150816 0.640348 2.665138 -27.016033 -0.000001 0.000003 0.000000 0.820470 5.237539 -29.403158 0.162685 1.372393 -13.519828 0.000001 -0.000001 -0.000002 -0.000000 0.000003 -0.000001 4.830915 17.858061 5.566076 -15.198226 0.576449 66.754990 0.000000 21.881882 0.000022 11.551353 9.546661 1.170295 -7.540283 -3.885187 -4.751899 7.955469 -28.077784 -3.121234 0.000000 0.000001 -0.000000 0.082429 -1.088649 14.291442 0.320882 -1.700391 21.371532 -0.000000 0.000003 0.000002 0.522803 -4.330236 26.060462 0.321163 -1.701137 21.381533 -0.000004 0.000000 0.000002 2.075029 -6.645784 34.808915 0.321864 -1.702914 21.404855 0.000000 -0.000003 -0.000002 1.502787 -7.627444 42.127777 0.321170 -1.701142 21.381398 -0.000003 -0.000000 0.000002 0.000000 -0.000000 0.000000 0.000002 0.000000 -0.000000 0.000002 0.000000 -0.000000 0.000002 0.000000 -0.000000 0.000002 0.000000 -0.000000 0.000002 0.000000 -0.000001 0.000002 0.000000 -0.000000 0.000002 0.000000 -0.000000 0.000002 0.000000 -0.000001 0.000002 0.000000 -0.000000 -0.000000 0.000000 0.000000 -0.000000 0.000000 0.000000 -0.000000 -0.000000 -0.000000 
0.075033 77.002304 0.641503 5.344160 -6.850841 -1.047774 0.000000 0.000000 0.000000 -43.193037 7.636179 20.962663 60.523426 9.175329 -1.607611 13.406899 5.208189 -11.084355 0.000001 -0.000001 0.000001 0.000001 -0.000001 0.000000 0.000000 -0.000000 -0.000001 -31.938572 -6.129732 4.562049 43.888572 -1.712908 -1.000759 -19.293881 -5.206848 -3.854229 -0.000000 -0.000002 0.000000 -0.000000 -0.000002 0.000000 0.000001 0.000001 -0.000000 9.149238 3.442692 5.184187 6.470723 1.252375 1.050137 6.467349 1.205347 1.091236 2.140431 -0.627687 -1.373676 -3.654017 -2.810159 -0.098614 0.000001 0.000000 -0.000000 0.000001 0.000000 -0.000000 0.000001 0.000000 -0.000000 1.719466 -9.903873 -14.934630 -24.909459 1.975394 -69.518492 0.000004 -31.046253 -0.000002 13.575654 3.329225 3.235261 -6.000701 -6.126818 4.616756 7.611103 24.884940 2.404782 -0.000001 0.000001 0.000002 0.631451 4.874271 -25.392809 0.600988 2.586568 -26.156880 0.000001 -0.000001 -0.000004 0.229963 3.745042 -13.650470 0.651209 2.686320 -27.248777 -0.000001 0.000000 -0.000002 0.500616 4.578776 -22.229920 0.643781 2.671861 -27.089855 -0.000001 0.000004 0.000000 0.824197 5.244104 -29.477123 0.164335 1.379248 -13.588665 0.000001 0.000001 -0.000002 0.000000 0.000001 -0.000001 4.818720 17.839436 5.583533 -15.265580 -0.058694 66.673814 0.000004 21.871306 -0.000007 12.264131 9.590643 0.896142 -7.540278 -3.885183 -4.751900 7.955467 -28.077781 -3.121235 0.000000 -0.000001 -0.000002 0.081293 -1.093035 14.345801 0.324227 -1.708934 21.484177 0.000003 -0.000001 0.000002 0.524617 -4.333903 26.110843 0.324038 -1.708449 21.477923 0.000003 0.000002 0.000004 2.078620 -6.647926 34.855828 0.324537 -1.709703 21.494467 -0.000002 -0.000001 0.000000 1.506870 -7.629866 42.171446 0.323649 -1.707457 21.464831 0.000001 0.000000 -0.000001 0.000001 -0.000001 0.000000 -0.000000 0.000000 -0.000000 -0.000000 0.000000 -0.000000 -0.000000 0.000000 -0.000000 -0.000000 0.000000 -0.000000 -0.000000 0.000000 -0.000000 -0.000000 0.000000 0.000000 -0.000000 0.000000 -0.000000 -0.000000 0.000000 -0.000000 -0.000000 0.000000 0.000000 0.000001 0.000000 -0.000001 0.000001 0.000000 -0.000001 0.000000 0.000000 0.000000 
0.032147 77.069901 0.739547 5.370919 -6.835761 -0.727443 -0.000000 0.000000 0.000000 -43.470367 8.117213 20.261662 59.982892 9.613136 -1.625196 12.940046 3.824631 -10.474082 -0.000003 0.000000 -0.000000 -0.000003 0.000000 -0.000001 -0.000001 0.000003 -0.000002 -31.859800 -6.014075 4.231703 43.823180 -2.057937 -0.996052 -19.355428 -4.797268 -3.702803 -0.000000 -0.000002 0.000000 -0.000000 -0.000002 0.000000 0.000002 -0.000000 0.000001 9.127329 3.466605 5.163877 6.458227 1.270575 1.050138 6.454845 1.219981 1.086653 2.140428 -0.658715 -1.366249 -3.626635 -2.970674 -0.373948 0.000002 -0.000000 -0.000000 0.000002 -0.000000 -0.000000 0.000002 -0.000000 -0.000000 1.707815 -9.871293 -14.933500 -24.720369 1.875862 -69.543367 -0.000023 -31.071818 -0.000051 13.451187 3.530305 2.736896 -6.000702 -6.126817 4.616755 7.611104 24.884940 2.404782 -0.000000 -0.000001 -0.000001 0.643178 4.898765 -25.658651 0.613023 2.610908 -26.422269 -0.000000 -0.000003 -0.000000 0.236007 3.769627 -13.897914 0.662085 2.707300 -27.479833 0.000001 -0.000000 -0.000002 0.509622 4.600630 -22.461176 0.653878 2.691478 -27.305549 -0.000002 0.000001 -0.000000 0.835142 5.263281 -29.693349 0.169208 1.399272 -13.789938 -0.000002 0.000000 0.000001 0.000000 0.000004 -0.000001 4.783130 17.784938 5.634553 -15.255337 -0.757018 66.514486 -0.000000 21.916141 0.000003 12.968084 9.611773 0.635146 -7.540283 -3.885186 -4.751900 7.955470 -28.077781 -3.121234 -0.000001 0.000000 -0.000001 0.084237 -1.104386 14.506169 0.334203 -1.734028 21.815991 0.000001 -0.000000 0.000002 0.529943 -4.344726 26.259333 0.332566 -1.729968 21.762204 -0.000003 0.000001 0.000005 2.089177 -6.654226 34.994235 0.332470 -1.729703 21.758894 0.000001 0.000001 0.000004 1.515884 -7.639719 42.300007 0.331039 -1.726106 21.711150 -0.000001 0.000001 0.000002 0.000001 -0.000001 0.000000 0.000001 0.000000 0.000001 0.000001 0.000000 0.000001 0.000001 0.000000 0.000001 0.000001 0.000000 0.000001 0.000001 0.000000 0.000000 0.000001 0.000000 0.000001 0.000001 0.000000 0.000001 0.000001 0.000000 0.000000 0.000001 0.000000 0.000001 0.000001 0.000000 0.000000 0.000001 0.000000 0.000000 -0.000000 0.000000 0.000000 
-0.022937 77.155869 0.896771 5.402276 -6.796322 -0.334277 0.000000 0.000000 0.000000 -43.682331 8.867904 19.114621 59.195699 9.638058 -1.644754 11.935434 2.491497 -9.810916 0.000001 0.000001 -0.000001 0.000001 0.000001 -0.000001 0.000000 -0.000000 0.000001 -31.723056 -5.856382 3.837468 43.735860 -2.429736 -0.990321 -19.466908 -4.377230 -3.535807 0.000000 -0.000000 -0.000000 0.000000 -0.000000 -0.000000 0.000000 -0.000001 0.000000 9.091558 3.500595 5.125056 6.437242 1.301644 1.047209 6.434239 1.243749 1.079201 2.140440 -0.705677 -1.362459 -3.574626 -3.199441 -0.688519 0.000000 0.000000 -0.000000 0.000000 0.000000 -0.000000 0.000000 0.000000 -0.000000 1.689945 -9.818011 -14.926639 -24.496731 1.749452 -69.601492 0.000003 -31.094826 0.000001 13.416811 3.707228 2.149823 -6.000705 -6.126821 4.616758 7.611103 24.884937 2.404778 0.000003 0.000000 -0.000000 0.662413 4.938243 -26.088488 0.632713 2.650132 -26.851391 -0.000000 -0.000001 -0.000000 0.245997 3.809347 -14.298156 0.679859 2.741155 -27.853682 0.000000 0.000001 0.000002 0.524394 4.635900 -22.835363 0.670364 2.723156 -27.654702 -0.000002 0.000001 -0.000002 0.853000 5.294242 -30.043366 0.177265 1.431650 -14.115806 0.000001 0.000000 -0.000000 -0.000000 -0.000000 -0.000001 4.725667 17.696574 5.717013 -15.174705 -1.505992 66.289909 -0.000005 21.983642 -0.000004 13.660425 9.640873 0.382075 -7.540280 -3.885183 -4.751902 7.955463 -28.077784 -3.121235 0.000000 0.000001 0.000000 0.089116 -1.122876 14.767905 0.350778 -1.774871 22.357622 0.000002 -0.000002 0.000002 0.538735 -4.362390 26.501885 0.346743 -1.765038 22.227078 -0.000003 -0.000000 -0.000002 2.106483 -6.664480 35.220492 0.345641 -1.762347 22.191558 -0.000002 -0.000002 0.000004 1.527457 -7.652283 42.510346 0.343290 -1.756560 22.114459 0.000001 0.000000 -0.000001 0.000000 -0.000001 -0.000000 -0.000001 -0.000000 -0.000000 -0.000001 -0.000000 -0.000000 -0.000001 -0.000000 -0.000000 -0.000001 -0.000000 -0.000000 -0.000001 -0.000000 0.000000 -0.000001 -0.000000 0.000000 -0.000001 -0.000000 -0.000000 -0.000001 -0.000000 0.000000 -0.000001 -0.000000 0.000000 -0.000003 -0.000000 -0.000000 -0.000003 -0.000000 -0.000000 0.000000 0.000000 0.000000 
-0.085209 77.261002 1.109731 5.436667 -6.735092 0.120533 -0.000000 -0.000000 -0.000000 -43.712022 9.656022 17.842346 57.986899 9.585528 -1.664113 10.562327 1.279812 -9.115827 0.000001 -0.000000 -0.000000 0.000001 -0.000000 -0.000000 0.000002 -0.000001 0.000001 -31.523044 -5.662452 3.390177 43.612947 -2.823829 -0.983743 -19.617003 -3.951414 -3.354830 -0.000000 -0.000001 0.000000 -0.000000 -0.000001 0.000000 -0.000001 0.000000 0.000000 9.042778 3.541504 5.066084 6.408333 1.343090 1.038724 6.405866 1.274518 1.063853 2.140433 -0.766234 -1.362488 -3.498520 -3.486840 -1.029327 0.000001 -0.000000 -0.000000 0.000001 -0.000000 -0.000000 0.000001 -0.000000 -0.000000 1.665944 -9.745069 -14.916923 -24.239262 1.601052 -69.677137 -0.000005 -31.120872 -0.000012 13.466433 3.907408 1.467200 -6.000702 -6.126819 4.616756 7.611105 24.884946 2.404784 0.000000 -0.000001 0.000003 0.688952 4.991567 -26.671595 0.659901 2.703091 -27.433487 -0.000000 -0.000001 -0.000002 0.260003 3.863124 -14.841366 0.704332 2.786924 -28.361191 0.000000 -0.000002 -0.000000 0.544808 4.683628 -23.343357 0.693068 2.766004 -28.128865 -0.000006 -0.000002 -0.000004 0.877540 5.336112 -30.518730 0.188494 1.475579 -14.558425 0.000000 0.000001 -0.000000 0.000001 0.000002 -0.000001 4.647962 17.576319 5.828750 -15.030455 -2.293395 66.012966 -0.000001 22.078576 0.000008 14.337141 9.672008 0.139486 -7.540276 -3.885184 -4.751903 7.955470 -28.077781 -3.121236 0.000004 -0.000002 -0.000002 0.095886 -1.148100 15.126579 0.374129 -1.830581 23.099766 -0.000001 0.000001 0.000002 0.550896 -4.386538 26.834551 0.366671 -1.813004 22.865131 -0.000003 -0.000002 0.000003 2.130295 -6.678430 35.531098 0.364159 -1.807048 22.785846 -0.000000 -0.000003 -0.000000 1.543432 -7.669468 42.799236 0.360487 -1.798268 22.668860 -0.000001 0.000001 0.000000 -0.000000 -0.000001 0.000000 0.000002 0.000000 0.000000 0.000002 0.000000 0.000000 0.000002 0.000000 0.000000 0.000002 0.000000 0.000000 0.000002 0.000000 -0.000001 0.000002 -0.000000 -0.000000 0.000002 0.000000 0.000000 0.000002 0.000000 -0.000001 0.000002 -0.000000 -0.000000 -0.000001 0.000000 -0.000001 -0.000001 0.000000 -0.000001 -0.000000 -0.000000 -0.000000 
